<mxfile host="65bd71144e">
    <diagram id="2HHAz49fwHNZxHMtaiDb" name="Trang chủ">
        <mxGraphModel dx="733" dy="1636" grid="1" gridSize="10" guides="1" tooltips="1" connect="1" arrows="1" fold="1" page="1" pageScale="1" pageWidth="827" pageHeight="1169" math="0" shadow="0">
            <root>
                <mxCell id="0"/>
                <mxCell id="1" parent="0"/>
                <mxCell id="2" value="&lt;h1&gt;Giới thiệu dự án ASM2 - Thiết kế Ứng dụng Quản lý nhân viên&lt;/h1&gt;&lt;p&gt;Gồm 3 màn hình chính: 1 Danh sách nhân viên&amp;nbsp; &amp;nbsp; &amp;nbsp;2 Danh sách phòng ban&amp;nbsp; &amp;nbsp; 3 Bảng lương&lt;/p&gt;&lt;p&gt;1. Danh sách nhân viên: Màn hình 1 - Danh sách toàn bộ nhân viên&amp;nbsp; &amp;nbsp; Màn hình 2 - Thông tin chi tiết mỗi nhân viên&lt;/p&gt;&lt;p&gt;Sắp xếp theo thứ tự định sắn&lt;/p&gt;&lt;p&gt;Tìm kiếm theo tên nhân viên&lt;/p&gt;&lt;p&gt;2. Danh sách phòng ban: Hiện thị danh sách các phòng ban + thông tin số lượng nhân viên&lt;/p&gt;&lt;p&gt;3. Bảng lương&lt;/p&gt;&lt;p&gt;Tính lương cho mỗi nhân viên&lt;/p&gt;&lt;p&gt;Hiện thị danh sách bảng lương của tất cả nhân viên&lt;/p&gt;&lt;p&gt;Sắp xếp theo thứ tự định sẵn&lt;/p&gt;&lt;p&gt;&lt;br&gt;&lt;/p&gt;" style="text;html=1;strokeColor=#6c8ebf;fillColor=#dae8fc;spacing=5;spacingTop=-20;whiteSpace=wrap;overflow=hidden;rounded=0;fontColor=#0000CC;" parent="1" vertex="1">
                    <mxGeometry x="40" y="-1080" width="810" height="290" as="geometry"/>
                </mxCell>
                <mxCell id="3" value="" style="rounded=0;whiteSpace=wrap;html=1;fontColor=#0000CC;" parent="1" vertex="1">
                    <mxGeometry x="30" y="-770" width="730" height="140" as="geometry"/>
                </mxCell>
                <mxCell id="4" value="Header" style="text;html=1;strokeColor=#d79b00;fillColor=#ffe6cc;align=center;verticalAlign=middle;whiteSpace=wrap;rounded=0;fontColor=#0000CC;" parent="1" vertex="1">
                    <mxGeometry x="590" y="-760" width="100" height="30" as="geometry"/>
                </mxCell>
                <mxCell id="5" value="Logo" style="ellipse;whiteSpace=wrap;html=1;aspect=fixed;fontColor=#0000CC;" parent="1" vertex="1">
                    <mxGeometry x="60" y="-745" width="80" height="80" as="geometry"/>
                </mxCell>
                <mxCell id="6" value="Nhân viên" style="shape=step;perimeter=stepPerimeter;whiteSpace=wrap;html=1;fixedSize=1;fillColor=#ffe6cc;strokeColor=#d79b00;fontColor=#0000CC;" parent="1" vertex="1">
                    <mxGeometry x="150" y="-745" width="120" height="80" as="geometry"/>
                </mxCell>
                <mxCell id="7" value="Phòng ban" style="shape=step;perimeter=stepPerimeter;whiteSpace=wrap;html=1;fixedSize=1;fontColor=#0000CC;" parent="1" vertex="1">
                    <mxGeometry x="270" y="-745" width="120" height="80" as="geometry"/>
                </mxCell>
                <mxCell id="8" value="Bảng lương" style="shape=step;perimeter=stepPerimeter;whiteSpace=wrap;html=1;fixedSize=1;fontColor=#0000CC;" parent="1" vertex="1">
                    <mxGeometry x="390" y="-745" width="120" height="80" as="geometry"/>
                </mxCell>
                <mxCell id="9" value="Home" style="text;html=1;strokeColor=#d79b00;fillColor=#ffe6cc;align=center;verticalAlign=middle;whiteSpace=wrap;rounded=0;fontColor=#0000CC;" parent="1" vertex="1">
                    <mxGeometry x="50" y="-630" width="60" height="30" as="geometry"/>
                </mxCell>
                <mxCell id="10" value="Nhân viên A" style="swimlane;startSize=20;fontColor=#0000CC;" parent="1" vertex="1">
                    <mxGeometry x="60" y="-550" width="200" height="200" as="geometry"/>
                </mxCell>
                <mxCell id="11" value="Ảnh" style="ellipse;shape=cloud;whiteSpace=wrap;html=1;fontColor=#0000CC;" parent="10" vertex="1">
                    <mxGeometry y="20" width="190" height="150" as="geometry"/>
                </mxCell>
                <mxCell id="12" value="Nhân viên B" style="swimlane;startSize=20;fontColor=#0000CC;" parent="1" vertex="1">
                    <mxGeometry x="310" y="-550" width="200" height="200" as="geometry"/>
                </mxCell>
                <mxCell id="13" value="Ảnh" style="ellipse;shape=cloud;whiteSpace=wrap;html=1;fontColor=#0000CC;" parent="12" vertex="1">
                    <mxGeometry y="20" width="190" height="150" as="geometry"/>
                </mxCell>
                <mxCell id="14" value="Nhân viên C" style="swimlane;startSize=20;fontColor=#0000CC;" parent="1" vertex="1">
                    <mxGeometry x="560" y="-550" width="200" height="200" as="geometry"/>
                </mxCell>
                <mxCell id="15" value="Ảnh" style="ellipse;shape=cloud;whiteSpace=wrap;html=1;fontColor=#0000CC;" parent="14" vertex="1">
                    <mxGeometry y="20" width="190" height="150" as="geometry"/>
                </mxCell>
                <mxCell id="16" value="Nhân viên D" style="swimlane;startSize=20;fontColor=#0000CC;" parent="1" vertex="1">
                    <mxGeometry x="50" y="-310" width="200" height="200" as="geometry"/>
                </mxCell>
                <mxCell id="17" value="Ảnh" style="ellipse;shape=cloud;whiteSpace=wrap;html=1;fontColor=#0000CC;" parent="16" vertex="1">
                    <mxGeometry y="20" width="190" height="150" as="geometry"/>
                </mxCell>
                <mxCell id="18" value="Nhân viên E" style="swimlane;startSize=20;fontColor=#0000CC;" parent="1" vertex="1">
                    <mxGeometry x="300" y="-310" width="200" height="200" as="geometry"/>
                </mxCell>
                <mxCell id="19" value="Ảnh" style="ellipse;shape=cloud;whiteSpace=wrap;html=1;fontColor=#0000CC;" parent="18" vertex="1">
                    <mxGeometry y="20" width="190" height="150" as="geometry"/>
                </mxCell>
                <mxCell id="20" value="Nhân viên F" style="swimlane;startSize=20;fontColor=#0000CC;" parent="1" vertex="1">
                    <mxGeometry x="550" y="-310" width="200" height="200" as="geometry"/>
                </mxCell>
                <mxCell id="21" value="Ảnh" style="ellipse;shape=cloud;whiteSpace=wrap;html=1;fontColor=#0000CC;" parent="20" vertex="1">
                    <mxGeometry y="20" width="190" height="150" as="geometry"/>
                </mxCell>
                <mxCell id="22" value="input search theo tên" style="html=1;labelBackgroundColor=#B3B3B3;fillColor=#f8cecc;strokeColor=#b85450;fontColor=#0000CC;" parent="1" vertex="1">
                    <mxGeometry x="310" y="-620" width="140" height="30" as="geometry"/>
                </mxCell>
                <mxCell id="23" value="input sort danh sách" style="html=1;labelBackgroundColor=#B3B3B3;fillColor=#f8cecc;strokeColor=#b85450;fontColor=#0000CC;" parent="1" vertex="1">
                    <mxGeometry x="500" y="-620" width="140" height="30" as="geometry"/>
                </mxCell>
            </root>
        </mxGraphModel>
    </diagram>
    <diagram id="Ihd7GEmNNU1xVJ5y7hly" name="Nhân viên">
        <mxGraphModel dx="733" dy="1636" grid="1" gridSize="10" guides="1" tooltips="1" connect="1" arrows="1" fold="1" page="1" pageScale="1" pageWidth="827" pageHeight="1169" math="0" shadow="0">
            <root>
                <mxCell id="LXMfkSmJRbZtz2DBA-jM-0"/>
                <mxCell id="LXMfkSmJRbZtz2DBA-jM-1" parent="LXMfkSmJRbZtz2DBA-jM-0"/>
                <mxCell id="LXMfkSmJRbZtz2DBA-jM-2" value="" style="rounded=0;whiteSpace=wrap;html=1;fontColor=#0000CC;" parent="LXMfkSmJRbZtz2DBA-jM-1" vertex="1">
                    <mxGeometry x="30" y="-1080" width="730" height="140" as="geometry"/>
                </mxCell>
                <mxCell id="LXMfkSmJRbZtz2DBA-jM-3" value="Header" style="text;html=1;strokeColor=#d79b00;fillColor=#ffe6cc;align=center;verticalAlign=middle;whiteSpace=wrap;rounded=0;fontColor=#0000CC;" parent="LXMfkSmJRbZtz2DBA-jM-1" vertex="1">
                    <mxGeometry x="590" y="-1070" width="100" height="30" as="geometry"/>
                </mxCell>
                <mxCell id="LXMfkSmJRbZtz2DBA-jM-4" value="Logo" style="ellipse;whiteSpace=wrap;html=1;aspect=fixed;fontColor=#0000CC;" parent="LXMfkSmJRbZtz2DBA-jM-1" vertex="1">
                    <mxGeometry x="60" y="-1055" width="80" height="80" as="geometry"/>
                </mxCell>
                <mxCell id="LXMfkSmJRbZtz2DBA-jM-5" value="Nhân viên" style="shape=step;perimeter=stepPerimeter;whiteSpace=wrap;html=1;fixedSize=1;fillColor=#ffe6cc;strokeColor=#d79b00;fontColor=#0000CC;" parent="LXMfkSmJRbZtz2DBA-jM-1" vertex="1">
                    <mxGeometry x="150" y="-1055" width="120" height="80" as="geometry"/>
                </mxCell>
                <mxCell id="LXMfkSmJRbZtz2DBA-jM-6" value="Phòng ban" style="shape=step;perimeter=stepPerimeter;whiteSpace=wrap;html=1;fixedSize=1;fontColor=#0000CC;" parent="LXMfkSmJRbZtz2DBA-jM-1" vertex="1">
                    <mxGeometry x="270" y="-1055" width="120" height="80" as="geometry"/>
                </mxCell>
                <mxCell id="LXMfkSmJRbZtz2DBA-jM-7" value="Bảng lương" style="shape=step;perimeter=stepPerimeter;whiteSpace=wrap;html=1;fixedSize=1;fontColor=#0000CC;" parent="LXMfkSmJRbZtz2DBA-jM-1" vertex="1">
                    <mxGeometry x="390" y="-1055" width="120" height="80" as="geometry"/>
                </mxCell>
                <mxCell id="LXMfkSmJRbZtz2DBA-jM-8" value="Nhân viên" style="text;html=1;align=center;verticalAlign=middle;whiteSpace=wrap;rounded=0;fontColor=#0000CC;" parent="LXMfkSmJRbZtz2DBA-jM-1" vertex="1">
                    <mxGeometry x="40" y="-930" width="90" height="40" as="geometry"/>
                </mxCell>
                <mxCell id="LXMfkSmJRbZtz2DBA-jM-9" value="Nhân viên A" style="shape=step;perimeter=stepPerimeter;whiteSpace=wrap;html=1;fixedSize=1;fillColor=#ffe6cc;strokeColor=#d79b00;fontColor=#0000CC;" parent="LXMfkSmJRbZtz2DBA-jM-1" vertex="1">
                    <mxGeometry x="140" y="-930" width="160" height="40" as="geometry"/>
                </mxCell>
                <mxCell id="LXMfkSmJRbZtz2DBA-jM-10" value="Nhân viên A" style="swimlane;startSize=20;fontColor=#0000CC;" parent="LXMfkSmJRbZtz2DBA-jM-1" vertex="1">
                    <mxGeometry x="40" y="-840" width="200" height="200" as="geometry"/>
                </mxCell>
                <mxCell id="LXMfkSmJRbZtz2DBA-jM-11" value="Ảnh" style="ellipse;shape=cloud;whiteSpace=wrap;html=1;" parent="LXMfkSmJRbZtz2DBA-jM-10" vertex="1">
                    <mxGeometry y="20" width="190" height="150" as="geometry"/>
                </mxCell>
                <mxCell id="LXMfkSmJRbZtz2DBA-jM-12" value="onClick" style="html=1;shadow=0;dashed=0;align=center;verticalAlign=middle;shape=mxgraph.arrows2.arrow;dy=0.6;dx=40;notch=0;fillColor=#ffe6cc;strokeColor=#d79b00;fontColor=#0000CC;" parent="LXMfkSmJRbZtz2DBA-jM-1" vertex="1">
                    <mxGeometry x="255" y="-785" width="150" height="90" as="geometry"/>
                </mxCell>
                <mxCell id="LXMfkSmJRbZtz2DBA-jM-13" value="Nhân viên A" style="swimlane;fontStyle=0;childLayout=stackLayout;horizontal=1;startSize=30;horizontalStack=0;resizeParent=1;resizeParentMax=0;resizeLast=0;collapsible=1;marginBottom=0;fillColor=#ffe6cc;strokeColor=#d79b00;fontColor=#0000CC;" parent="LXMfkSmJRbZtz2DBA-jM-1" vertex="1">
                    <mxGeometry x="440" y="-815" width="280" height="150" as="geometry"/>
                </mxCell>
                <mxCell id="LXMfkSmJRbZtz2DBA-jM-14" value="Item 1" style="text;strokeColor=none;fillColor=none;align=left;verticalAlign=middle;spacingLeft=4;spacingRight=4;overflow=hidden;points=[[0,0.5],[1,0.5]];portConstraint=eastwest;rotatable=0;" parent="LXMfkSmJRbZtz2DBA-jM-13" vertex="1">
                    <mxGeometry y="30" width="280" height="30" as="geometry"/>
                </mxCell>
                <mxCell id="LXMfkSmJRbZtz2DBA-jM-15" value="Item 2" style="text;strokeColor=none;fillColor=none;align=left;verticalAlign=middle;spacingLeft=4;spacingRight=4;overflow=hidden;points=[[0,0.5],[1,0.5]];portConstraint=eastwest;rotatable=0;" parent="LXMfkSmJRbZtz2DBA-jM-13" vertex="1">
                    <mxGeometry y="60" width="280" height="30" as="geometry"/>
                </mxCell>
                <mxCell id="LXMfkSmJRbZtz2DBA-jM-16" value="Item 3" style="text;strokeColor=none;fillColor=none;align=left;verticalAlign=middle;spacingLeft=4;spacingRight=4;overflow=hidden;points=[[0,0.5],[1,0.5]];portConstraint=eastwest;rotatable=0;" parent="LXMfkSmJRbZtz2DBA-jM-13" vertex="1">
                    <mxGeometry y="90" width="280" height="60" as="geometry"/>
                </mxCell>
            </root>
        </mxGraphModel>
    </diagram>
    <diagram id="SsqsBENrBKguwVa4rEiA" name="Phòng ban">
        <mxGraphModel dx="733" dy="1636" grid="1" gridSize="10" guides="1" tooltips="1" connect="1" arrows="1" fold="1" page="1" pageScale="1" pageWidth="827" pageHeight="1169" math="0" shadow="0">
            <root>
                <mxCell id="QHIGFNHdSVnQg9VRuQt9-0"/>
                <mxCell id="QHIGFNHdSVnQg9VRuQt9-1" parent="QHIGFNHdSVnQg9VRuQt9-0"/>
                <mxCell id="QHIGFNHdSVnQg9VRuQt9-17" value="" style="rounded=0;whiteSpace=wrap;html=1;fontColor=#0000CC;" parent="QHIGFNHdSVnQg9VRuQt9-1" vertex="1">
                    <mxGeometry x="30" y="-1080" width="730" height="140" as="geometry"/>
                </mxCell>
                <mxCell id="QHIGFNHdSVnQg9VRuQt9-18" value="Header" style="text;html=1;strokeColor=#d79b00;fillColor=#ffe6cc;align=center;verticalAlign=middle;whiteSpace=wrap;rounded=0;fontColor=#0000CC;" parent="QHIGFNHdSVnQg9VRuQt9-1" vertex="1">
                    <mxGeometry x="590" y="-1070" width="100" height="30" as="geometry"/>
                </mxCell>
                <mxCell id="QHIGFNHdSVnQg9VRuQt9-19" value="Logo" style="ellipse;whiteSpace=wrap;html=1;aspect=fixed;fontColor=#0000CC;" parent="QHIGFNHdSVnQg9VRuQt9-1" vertex="1">
                    <mxGeometry x="60" y="-1055" width="80" height="80" as="geometry"/>
                </mxCell>
                <mxCell id="QHIGFNHdSVnQg9VRuQt9-20" value="Nhân viên" style="shape=step;perimeter=stepPerimeter;whiteSpace=wrap;html=1;fixedSize=1;fontColor=#0000CC;" parent="QHIGFNHdSVnQg9VRuQt9-1" vertex="1">
                    <mxGeometry x="150" y="-1055" width="120" height="80" as="geometry"/>
                </mxCell>
                <mxCell id="QHIGFNHdSVnQg9VRuQt9-21" value="Phòng ban" style="shape=step;perimeter=stepPerimeter;whiteSpace=wrap;html=1;fixedSize=1;fillColor=#ffe6cc;strokeColor=#d79b00;fontColor=#0000CC;" parent="QHIGFNHdSVnQg9VRuQt9-1" vertex="1">
                    <mxGeometry x="270" y="-1055" width="120" height="80" as="geometry"/>
                </mxCell>
                <mxCell id="QHIGFNHdSVnQg9VRuQt9-22" value="Bảng lương" style="shape=step;perimeter=stepPerimeter;whiteSpace=wrap;html=1;fixedSize=1;fontColor=#0000CC;" parent="QHIGFNHdSVnQg9VRuQt9-1" vertex="1">
                    <mxGeometry x="390" y="-1055" width="120" height="80" as="geometry"/>
                </mxCell>
                <mxCell id="QHIGFNHdSVnQg9VRuQt9-23" value="Phòng ban" style="text;html=1;align=center;verticalAlign=middle;whiteSpace=wrap;rounded=0;fillColor=#ffe6cc;strokeColor=#d79b00;fontColor=#0000CC;" parent="QHIGFNHdSVnQg9VRuQt9-1" vertex="1">
                    <mxGeometry x="40" y="-930" width="90" height="40" as="geometry"/>
                </mxCell>
                <mxCell id="QHIGFNHdSVnQg9VRuQt9-24" value="Phòng 1" style="html=1;fontColor=#0000CC;" parent="QHIGFNHdSVnQg9VRuQt9-1" vertex="1">
                    <mxGeometry x="50" y="-870" width="110" height="50" as="geometry"/>
                </mxCell>
                <mxCell id="QHIGFNHdSVnQg9VRuQt9-25" value="Phòng 2" style="html=1;fontColor=#0000CC;" parent="QHIGFNHdSVnQg9VRuQt9-1" vertex="1">
                    <mxGeometry x="220" y="-870" width="110" height="50" as="geometry"/>
                </mxCell>
                <mxCell id="QHIGFNHdSVnQg9VRuQt9-26" value="Phòng 3" style="html=1;fontColor=#0000CC;" parent="QHIGFNHdSVnQg9VRuQt9-1" vertex="1">
                    <mxGeometry x="395" y="-870" width="110" height="50" as="geometry"/>
                </mxCell>
                <mxCell id="QHIGFNHdSVnQg9VRuQt9-27" value="Phòng 4" style="html=1;fontColor=#0000CC;" parent="QHIGFNHdSVnQg9VRuQt9-1" vertex="1">
                    <mxGeometry x="50" y="-770" width="110" height="50" as="geometry"/>
                </mxCell>
                <mxCell id="QHIGFNHdSVnQg9VRuQt9-28" value="Phòng 5" style="html=1;fontColor=#0000CC;" parent="QHIGFNHdSVnQg9VRuQt9-1" vertex="1">
                    <mxGeometry x="220" y="-770" width="110" height="50" as="geometry"/>
                </mxCell>
                <mxCell id="QHIGFNHdSVnQg9VRuQt9-29" value="Phòng 6" style="html=1;fontColor=#0000CC;" parent="QHIGFNHdSVnQg9VRuQt9-1" vertex="1">
                    <mxGeometry x="395" y="-770" width="110" height="50" as="geometry"/>
                </mxCell>
            </root>
        </mxGraphModel>
    </diagram>
    <diagram id="pCBmEYhSDOLAGtYqILRu" name="Bảng lương">
        <mxGraphModel dx="733" dy="1636" grid="1" gridSize="10" guides="1" tooltips="1" connect="1" arrows="1" fold="1" page="1" pageScale="1" pageWidth="827" pageHeight="1169" math="0" shadow="0">
            <root>
                <mxCell id="gNOep4MkbeEijUAMNWeK-0"/>
                <mxCell id="gNOep4MkbeEijUAMNWeK-1" parent="gNOep4MkbeEijUAMNWeK-0"/>
                <mxCell id="gNOep4MkbeEijUAMNWeK-2" value="" style="rounded=0;whiteSpace=wrap;html=1;fontColor=#0000CC;" parent="gNOep4MkbeEijUAMNWeK-1" vertex="1">
                    <mxGeometry x="30" y="-1080" width="730" height="140" as="geometry"/>
                </mxCell>
                <mxCell id="gNOep4MkbeEijUAMNWeK-3" value="Header" style="text;html=1;strokeColor=#d79b00;fillColor=#ffe6cc;align=center;verticalAlign=middle;whiteSpace=wrap;rounded=0;fontColor=#0000CC;" parent="gNOep4MkbeEijUAMNWeK-1" vertex="1">
                    <mxGeometry x="590" y="-1070" width="100" height="30" as="geometry"/>
                </mxCell>
                <mxCell id="gNOep4MkbeEijUAMNWeK-4" value="Logo" style="ellipse;whiteSpace=wrap;html=1;aspect=fixed;fontColor=#0000CC;" parent="gNOep4MkbeEijUAMNWeK-1" vertex="1">
                    <mxGeometry x="60" y="-1055" width="80" height="80" as="geometry"/>
                </mxCell>
                <mxCell id="gNOep4MkbeEijUAMNWeK-5" value="Nhân viên" style="shape=step;perimeter=stepPerimeter;whiteSpace=wrap;html=1;fixedSize=1;fontColor=#0000CC;" parent="gNOep4MkbeEijUAMNWeK-1" vertex="1">
                    <mxGeometry x="150" y="-1055" width="120" height="80" as="geometry"/>
                </mxCell>
                <mxCell id="gNOep4MkbeEijUAMNWeK-6" value="Phòng ban" style="shape=step;perimeter=stepPerimeter;whiteSpace=wrap;html=1;fixedSize=1;fontColor=#0000CC;" parent="gNOep4MkbeEijUAMNWeK-1" vertex="1">
                    <mxGeometry x="270" y="-1055" width="120" height="80" as="geometry"/>
                </mxCell>
                <mxCell id="gNOep4MkbeEijUAMNWeK-7" value="Bảng lương" style="shape=step;perimeter=stepPerimeter;whiteSpace=wrap;html=1;fixedSize=1;fillColor=#ffe6cc;strokeColor=#d79b00;fontColor=#0000CC;" parent="gNOep4MkbeEijUAMNWeK-1" vertex="1">
                    <mxGeometry x="390" y="-1055" width="120" height="80" as="geometry"/>
                </mxCell>
                <mxCell id="gNOep4MkbeEijUAMNWeK-8" value="Bảng lương" style="text;html=1;align=center;verticalAlign=middle;whiteSpace=wrap;rounded=0;fillColor=#ffe6cc;strokeColor=#d79b00;fontColor=#0000CC;" parent="gNOep4MkbeEijUAMNWeK-1" vertex="1">
                    <mxGeometry x="40" y="-930" width="90" height="40" as="geometry"/>
                </mxCell>
                <mxCell id="gNOep4MkbeEijUAMNWeK-9" value="Nhân viên A" style="swimlane;childLayout=stackLayout;horizontal=1;startSize=30;horizontalStack=0;rounded=1;fontSize=14;fontStyle=0;strokeWidth=2;resizeParent=0;resizeLast=1;shadow=0;dashed=0;align=center;fontColor=#0000CC;" parent="gNOep4MkbeEijUAMNWeK-1" vertex="1">
                    <mxGeometry x="50" y="-860" width="160" height="120" as="geometry"/>
                </mxCell>
                <mxCell id="gNOep4MkbeEijUAMNWeK-10" value="+Attribute1&#10;+Attribute2&#10;+Attribute3&#10;&#10;LƯƠNG xxxxxxxx" style="align=left;strokeColor=none;fillColor=none;spacingLeft=4;fontSize=12;verticalAlign=top;resizable=0;rotatable=0;part=1;fontColor=#FF0000;" parent="gNOep4MkbeEijUAMNWeK-9" vertex="1">
                    <mxGeometry y="30" width="160" height="90" as="geometry"/>
                </mxCell>
                <mxCell id="gNOep4MkbeEijUAMNWeK-11" value="Nhân viên B" style="swimlane;childLayout=stackLayout;horizontal=1;startSize=30;horizontalStack=0;rounded=1;fontSize=14;fontStyle=0;strokeWidth=2;resizeParent=0;resizeLast=1;shadow=0;dashed=0;align=center;fontColor=#0000CC;" parent="gNOep4MkbeEijUAMNWeK-1" vertex="1">
                    <mxGeometry x="290" y="-860" width="160" height="120" as="geometry"/>
                </mxCell>
                <mxCell id="gNOep4MkbeEijUAMNWeK-12" value="+Attribute1&#10;+Attribute2&#10;+Attribute3&#10;&#10;LƯƠNG xxxxxxxx" style="align=left;strokeColor=none;fillColor=none;spacingLeft=4;fontSize=12;verticalAlign=top;resizable=0;rotatable=0;part=1;fontColor=#FF0000;" parent="gNOep4MkbeEijUAMNWeK-11" vertex="1">
                    <mxGeometry y="30" width="160" height="90" as="geometry"/>
                </mxCell>
                <mxCell id="gNOep4MkbeEijUAMNWeK-13" value="Nhân viên C" style="swimlane;childLayout=stackLayout;horizontal=1;startSize=30;horizontalStack=0;rounded=1;fontSize=14;fontStyle=0;strokeWidth=2;resizeParent=0;resizeLast=1;shadow=0;dashed=0;align=center;fontColor=#0000CC;" parent="gNOep4MkbeEijUAMNWeK-1" vertex="1">
                    <mxGeometry x="520" y="-860" width="160" height="120" as="geometry"/>
                </mxCell>
                <mxCell id="gNOep4MkbeEijUAMNWeK-14" value="+Attribute1&#10;+Attribute2&#10;+Attribute3&#10;&#10;LƯƠNG xxxxxxxx" style="align=left;strokeColor=none;fillColor=none;spacingLeft=4;fontSize=12;verticalAlign=top;resizable=0;rotatable=0;part=1;fontColor=#FF0000;" parent="gNOep4MkbeEijUAMNWeK-13" vertex="1">
                    <mxGeometry y="30" width="160" height="90" as="geometry"/>
                </mxCell>
                <mxCell id="gNOep4MkbeEijUAMNWeK-15" value="Nhân viên D" style="swimlane;childLayout=stackLayout;horizontal=1;startSize=30;horizontalStack=0;rounded=1;fontSize=14;fontStyle=0;strokeWidth=2;resizeParent=0;resizeLast=1;shadow=0;dashed=0;align=center;fontColor=#0000CC;" parent="gNOep4MkbeEijUAMNWeK-1" vertex="1">
                    <mxGeometry x="55" y="-700" width="160" height="120" as="geometry"/>
                </mxCell>
                <mxCell id="gNOep4MkbeEijUAMNWeK-16" value="+Attribute1&#10;+Attribute2&#10;+Attribute3&#10;&#10;LƯƠNG xxxxxxxx" style="align=left;strokeColor=none;fillColor=none;spacingLeft=4;fontSize=12;verticalAlign=top;resizable=0;rotatable=0;part=1;fontColor=#FF0000;" parent="gNOep4MkbeEijUAMNWeK-15" vertex="1">
                    <mxGeometry y="30" width="160" height="90" as="geometry"/>
                </mxCell>
                <mxCell id="gNOep4MkbeEijUAMNWeK-17" value="Nhân viên E" style="swimlane;childLayout=stackLayout;horizontal=1;startSize=30;horizontalStack=0;rounded=1;fontSize=14;fontStyle=0;strokeWidth=2;resizeParent=0;resizeLast=1;shadow=0;dashed=0;align=center;fontColor=#0000CC;" parent="gNOep4MkbeEijUAMNWeK-1" vertex="1">
                    <mxGeometry x="295" y="-700" width="160" height="120" as="geometry"/>
                </mxCell>
                <mxCell id="gNOep4MkbeEijUAMNWeK-18" value="+Attribute1&#10;+Attribute2&#10;+Attribute3&#10;&#10;LƯƠNG xxxxxxxx" style="align=left;strokeColor=none;fillColor=none;spacingLeft=4;fontSize=12;verticalAlign=top;resizable=0;rotatable=0;part=1;fontColor=#FF0000;" parent="gNOep4MkbeEijUAMNWeK-17" vertex="1">
                    <mxGeometry y="30" width="160" height="90" as="geometry"/>
                </mxCell>
                <mxCell id="gNOep4MkbeEijUAMNWeK-19" value="Nhân viên F" style="swimlane;childLayout=stackLayout;horizontal=1;startSize=30;horizontalStack=0;rounded=1;fontSize=14;fontStyle=0;strokeWidth=2;resizeParent=0;resizeLast=1;shadow=0;dashed=0;align=center;fontColor=#0000CC;" parent="gNOep4MkbeEijUAMNWeK-1" vertex="1">
                    <mxGeometry x="525" y="-700" width="160" height="120" as="geometry"/>
                </mxCell>
                <mxCell id="gNOep4MkbeEijUAMNWeK-20" value="+Attribute1&#10;+Attribute2&#10;+Attribute3&#10;&#10;LƯƠNG xxxxxxxx" style="align=left;strokeColor=none;fillColor=none;spacingLeft=4;fontSize=12;verticalAlign=top;resizable=0;rotatable=0;part=1;fontColor=#FF0000;" parent="gNOep4MkbeEijUAMNWeK-19" vertex="1">
                    <mxGeometry y="30" width="160" height="90" as="geometry"/>
                </mxCell>
                <mxCell id="gNOep4MkbeEijUAMNWeK-21" value="Sort theo tên, id...." style="shape=module;align=left;spacingLeft=20;align=center;verticalAlign=top;labelBackgroundColor=#B3B3B3;fontColor=#0000CC;" parent="gNOep4MkbeEijUAMNWeK-1" vertex="1">
                    <mxGeometry x="625" y="-930" width="135" height="45" as="geometry"/>
                </mxCell>
            </root>
        </mxGraphModel>
    </diagram>
</mxfile>